# xmcd
#
# Track frame offsets: 
#        150
#        9500
#        21225
#        30182
#        43950
#        52077
#        63325
#        101375
#        113175
#        131810
#        145885
#        158380
#        172035
#        188975
#        207732
#        220585
#        238797
#        255552
#        266785
#
# Disc length: 3772 seconds
#
# Revision: 0
# Processed by: cddbd v1.5.2PL0 Copyright (c) Steve Scherf et al.
# Submitted via: ExactAudioCopyFreeDBPlugin 1.0
#
DISCID=140eba13
DTITLE=Johnny Cash - The Greatest Years 1958-1986
DYEAR=1989
DGENRE=Country
TTITLE0=Oh, What A Dream
TTITLE1=I Still Miss Someone
TTITLE2=Pickin' Time
TTITLE3=Don't Take Your Guns to Town
TTITLE4=Five Feet High And Rising
TTITLE5=Seasons of My Heart
TTITLE6=The Legend Of John Henry's Hammer
TTITLE7=Ring of Fire
TTITLE8=The Ballad Of Ira Hayes
TTITLE9=Orange Blossom Special
TTITLE10=Folsom Prison Blues
TTITLE11=San Quentin
TTITLE12=A Boy Named Sue
TTITLE13=Sunday Morning Coming Down
TTITLE14=Man in Black
TTITLE15=One Piece At A Time
TTITLE16=(Ghost) Riders In The Sky
TTITLE17=Without Love
TTITLE18=The Baron
EXTD=
EXTT0=
EXTT1=
EXTT2=
EXTT3=
EXTT4=
EXTT5=
EXTT6=
EXTT7=
EXTT8=
EXTT9=
EXTT10=
EXTT11=
EXTT12=
EXTT13=
EXTT14=
EXTT15=
EXTT16=
EXTT17=
EXTT18=
PLAYORDER=
